<?xml version="1.0" encoding="UTF-8" standalone="no"?>
<!-- Created with Inkscape (http://www.inkscape.org/) -->

<svg
   xmlns:dc="http://purl.org/dc/elements/1.1/"
   xmlns:cc="http://creativecommons.org/ns#"
   xmlns:rdf="http://www.w3.org/1999/02/22-rdf-syntax-ns#"
   xmlns:svg="http://www.w3.org/2000/svg"
   xmlns="http://www.w3.org/2000/svg"
   xmlns:sodipodi="http://sodipodi.sourceforge.net/DTD/sodipodi-0.dtd"
   xmlns:inkscape="http://www.inkscape.org/namespaces/inkscape"
   width="343.49857mm"
   height="214.67238mm"
   viewBox="0 0 1217.1209 760.65016"
   id="svg2"
   version="1.1"
   inkscape:version="0.91 r13725"
   sodipodi:docname="icon-color.svg">
  <defs
     id="defs4" />
  <sodipodi:namedview
     id="base"
     pagecolor="#ffffff"
     bordercolor="#666666"
     borderopacity="1.0"
     inkscape:pageopacity="0.0"
     inkscape:pageshadow="2"
     inkscape:zoom="0.35"
     inkscape:cx="82.007817"
     inkscape:cy="357.46794"
     inkscape:document-units="px"
     inkscape:current-layer="layer1"
     showgrid="false"
     inkscape:window-width="1920"
     inkscape:window-height="986"
     inkscape:window-x="0"
     inkscape:window-y="27"
     inkscape:window-maximized="1"
     fit-margin-top="0"
     fit-margin-left="0"
     fit-margin-right="0"
     fit-margin-bottom="0" />
  <metadata
     id="metadata7">
    <rdf:RDF>
      <cc:Work
         rdf:about="">
        <dc:format>image/svg+xml</dc:format>
        <dc:type
           rdf:resource="http://purl.org/dc/dcmitype/StillImage" />
        <dc:title></dc:title>
      </cc:Work>
    </rdf:RDF>
  </metadata>
  <g
     inkscape:label="Layer 1"
     inkscape:groupmode="layer"
     id="layer1"
     transform="translate(195.57925,-134.89426)">
    <g
       id="g4187"
       transform="translate(1605.7143,60)">
      <path
         id="path4142"
         d="m -1239.4386,75.60321 c -21.125,2.5 -49.375,11.125 -70.125,21.5 -24.875,12.5 -44.125,26.625 -66.5,49 -47.375,47.5 -75.25,105.75 -85,178.25 -3.375,25.25 -2.75,69.625 1.5,93.25 0.625,3.5 0.25,4 -3.375,5.5 -5.875,2.5 -12.125,8.25 -15.25,14.25 -4.125,7.75 -3.875,21.75 0.625,30.125 14.625,27.875 52.25,28.25 61.625,0.75 5.5,-16.25 -3.25,-36.375 -19,-43.75 l -6.25,-2.875 3.5,-20.125 c 25.625,-148.5 81,-249.5 158,-288.125 35.875,-17.875 79.75,-23.375 121.125,-14.875 6.875,1.5 6.125,1.5 -12.5,1.5 -21.375,0 -32.625,1.75 -50.5,7.625 -82.875,27.625 -158.5,126.375 -180.375,235.5 -5.25,25.875 -6.375,38.125 -6.5,66.25 0,41.375 5.125,69.625 19,104.625 l 5.5,14 -3.25,4.5 c -9.75,12.75 -8.75,29 2.5,41.625 7.375,8.125 14.5,11.5 24.625,11.5 17.625,-0.125 28.5,-11.25 28.5,-29 -0.125,-16.5 -11.125,-30.125 -27.25,-33.5 -6.375,-1.375 -6.375,-1.5 -7.375,-7.25 -0.5,-3.25 -1,-24.125 -1,-46.5 0.125,-43.625 1.5,-61 7.625,-95 22.375,-122.25 87.5,-217 166.5,-241.75 23.375,-7.375 54.75,-9 77.625,-4 28.25,6.125 55.125,19.5 78.375,38.875 7.875,6.625 7.5,6.125 -4.5,-6.25 -42.125,-42.875 -96.375,-75.125 -141.25,-83.75 -12.75,-2.375 -43.125,-3.375 -56.625,-1.875 z m -198.75,370.5 c 3.5,3.875 4.125,5.375 4.125,10.875 0,5.375 -0.625,6.875 -3.625,10 -3.5,3.5 -5.875,4.125 -12.625,3.625 -12.5,-0.875 -18.125,-18.25 -8.75,-26.625 3.625,-3.25 4.75,-3.625 10.375,-3 5.25,0.5 7,1.25 10.5,5.125 z m 80,96.375 c 1.5,0.375 4.5,2.75 6.5,5.125 6.25,7 4.875,18.625 -2.5,22.5 -7.875,4 -17.75,0.625 -21.5,-7.375 -4.75,-9.875 -1.25,-18 9.125,-21.25 1.875,-0.625 3.375,-0.5 8.375,1 z"
         inkscape:connector-curvature="0"
         style="fill:#178fd6;stroke:none" />
      <path
         id="path4144"
         d="m -1145.9386,144.35321 c -38.5,6.125 -70.75,23.625 -101.25,55.125 -57.625,59.5 -95.625,156 -95.625,242.75 0,60.25 14.75,106.125 49.25,152.75 0.75,1 -0.25,4.25 -2.75,9.375 -2.25,4.375 -4,9.75 -4,12 0,4 -0.125,4.125 -7.125,5.125 -4,0.5 -23.25,1 -42.875,1 -38.25,0 -51.125,-1.25 -80,-7.625 -109.875,-24.375 -198.375,-103.5 -217,-194.25 -3.25,-16 -4.125,-42.25 -1.625,-55.75 4.75,-26.375 16.875,-49.875 35.375,-68.625 22.875,-23.25 49.75,-37 81.375,-41.875 10.25,-1.625 49.5,-2.125 54.625,-0.625 2.125,0.5 2.375,0.375 1,-0.375 -3.625,-2.25 -24.625,-4.5 -41.875,-4.375 -28.875,0 -54.5,6 -79.5,18.5 -69.125,34.625 -104.25,93.625 -96,161.25 5.5,45.125 28.25,86.5 71.75,130.125 10.25,10.375 24.625,23.625 31.875,29.25 54.25,43 117.5,70.625 174.375,76.375 7.625,0.75 14.875,1.625 16.375,1.875 1.625,0.25 5.375,4.75 10.25,12 20,30.375 51.375,57.625 81,70.375 21.625,9.25 47,13.25 69.375,10.75 48.625,-5.25 90.375,-29.375 127.625,-73.875 46.125,-54.875 76.125,-122.875 85.375,-192.875 2.375,-19 2.5,-57.125 0,-74.5 -4.75,-33 -16.125,-65 -32.375,-90.125 l -5.25,-8.125 3.625,-5 c 2,-2.75 4.75,-7.5 6.125,-10.5 l 2.5,-5.5 17.125,0.875 c 69,3.25 131.25,22.625 182.75,56.75 45.25,30.25 78.375,67.25 99.875,111.625 43.5,90.375 17.75,178 -62.25,212.375 -26.875,11.5 -56.875,14 -93.375,7.625 -7.5,-1.375 -13.875,-2.25 -14,-2.125 -0.625,0.625 16.875,5.375 28.375,7.875 15.125,3.125 53.75,3.25 68.75,0 32.375,-6.875 66.75,-23.75 90.25,-44.25 32.375,-28.125 49.75,-67.125 49.75,-111.5 0,-48.375 -20.125,-96.125 -62.375,-147.625 -54,-65.875 -135.75,-115.625 -205.625,-125 -15.875,-2.125 -15,-1.75 -18.125,-9.625 -9,-22.375 -25.875,-46.375 -44.875,-64.125 -26.625,-24.875 -52.75,-39.375 -81.875,-45.75 -10.875,-2.375 -38.625,-3.375 -49,-1.75 z m 62.5,37.5 c 6.25,0.75 15.5,2.5 20.625,3.875 34.5,9.625 69.625,38.125 85.5,69.5 1.75,3.625 3.25,6.75 3.25,7 0,0.25 -8,0.5 -17.75,0.625 -18.5,0.125 -38.625,2.875 -55.25,7.625 l -8.625,2.375 -6.375,-6.5 c -18.375,-18.875 -48.625,-14.875 -61.375,8.125 -3.375,6 -3.75,7.875 -3.75,17.375 0,8.625 0.625,11.625 2.875,16 6.625,12.375 17.75,20.5 30.5,22.25 l 5.75,0.75 2.75,10 c 24.875,92.375 18.625,176.625 -18.875,251.25 -46.125,91.875 -133.875,144.125 -208,123.875 -21.875,-6 -42.125,-18 -61,-36.5 l -12.5,-12.25 17.125,-1.375 c 25.5,-2.125 56.375,-9.75 72.375,-18 l 4.75,-2.375 5.125,4.5 c 13.625,11.625 36.875,10.5 50,-2.25 11.875,-11.5 15,-28.25 8.125,-42.375 -6.25,-12.875 -17.625,-20.5 -32.625,-21.875 l -8.125,-0.75 -3.875,-10.75 c -10,-27.25 -17.375,-58.75 -20.75,-88.375 -2.5,-21.625 -1.75,-69.375 1.25,-88.625 10.25,-62.875 35.75,-116.375 75,-156.625 25.875,-26.625 52.5,-43.125 84,-52.125 17.75,-5 32.375,-6.375 49.875,-4.375 z m 2,95.375 c 8.125,5.5 9.375,17.125 2.625,24.75 -2.75,3 -4.875,4 -9.5,4.5 -11.125,1.25 -18.25,-5.25 -18.25,-16.5 0,-5.25 0.625,-6.5 4.875,-10.75 4.125,-4.25 5.625,-4.875 10.375,-4.875 3.75,0 7,1 9.875,2.875 z m -174.25,328.375 c 5.625,3.375 8.25,8 8.25,14.5 0,6.75 -3,11.375 -9.625,14.75 -13,6.375 -27.625,-8.375 -21.125,-21.5 4.5,-9.25 14.5,-12.625 22.5,-7.75 z"
         inkscape:connector-curvature="0"
         style="fill:#062744;stroke:none" />
      <path
         id="path4146"
         d="m -836.8136,152.22821 c -20.125,5.75 -31.375,27.875 -22.75,45 5.5,11 15.5,17.25 28.75,18.125 10.125,0.625 16,-0.875 24,-6.125 l 5.375,-3.625 11.625,7.25 c 49.125,30.875 97.625,81.25 130,135.125 10.25,16.875 25.375,48 31.375,64.375 9.5,25.625 15.625,56.25 15.625,77.375 0,41.375 -15.125,82 -43.875,117.75 -9.5,11.75 -14.25,15.875 -6.625,5.625 13.25,-17.625 23.5,-42.875 27.375,-68.125 3,-18.625 2.125,-52.75 -1.875,-72.5 -8.25,-42.125 -31.125,-89.125 -62.25,-128.125 -11.625,-14.625 -44.75,-47.75 -59,-59.125 -46.25,-36.875 -98.5,-64.125 -150.25,-78.5 -9.625,-2.625 -14.75,-4.625 -14.75,-5.75 0,-3.5 -5,-11.5 -9.625,-15.25 -13.875,-11.5 -35,-9.75 -47.125,3.75 -13.875,15.5 -10,36.25 8.5,45.75 14.625,7.625 34.125,2.75 43.625,-10.875 1.875,-2.625 1.875,-2.625 13.375,2 16.125,6.5 53.125,24.875 68.75,34.25 84.125,50.375 141.875,121.75 166.125,205.375 14.625,50 14.5,87.25 -0.25,123.875 -15.875,39.75 -42.625,65.875 -92.25,90.625 -32.375,16.125 -63.875,25.75 -89.875,27.5 l -13.125,0.875 13.125,0.875 c 25.625,1.875 60.875,-3.125 90.375,-13 20.125,-6.625 54.125,-23.375 72.75,-35.875 51.25,-34.375 91,-82.5 106.125,-128.5 9.875,-30.25 12.25,-73.75 5.75,-104.75 -12,-56.875 -53.375,-122.75 -108.5,-172.75 -27.25,-24.625 -59.5,-47.25 -85.5,-59.625 l -10.875,-5.25 0.75,-4.5 c 0.875,-6.25 -2.5,-17 -7.125,-22.625 -7.875,-9.5 -24.75,-14.25 -37.75,-10.625 z m 15.625,16.375 c 5.625,2.375 8.5,6 9.125,11.625 1.5,12.125 -13.25,20.75 -24.125,14.125 -8.5,-5.125 -9.875,-15.125 -3.125,-21.625 6,-5.75 11.5,-7 18.125,-4.125 z m -130.5,25.25 c 6,2.375 8.875,6.375 8.875,12.375 0,9 -6.75,15.625 -16.25,15.625 -16.125,0 -20.625,-20.875 -5.875,-27.625 6.375,-2.875 7.125,-2.875 13.25,-0.375 z"
         inkscape:connector-curvature="0"
         style="fill:#178fd6;stroke:none" />
      <path
         id="path4148"
         d="m -1570.9386,231.72821 c -31.125,4.875 -59.375,14 -88.75,28.25 -46.625,22.875 -84.625,54.625 -109.5,91.5 -26.625,39.375 -37.875,95.75 -29.25,146.125 8.125,47.625 35.625,105.125 73.875,154.25 22,28.375 58.5,63.125 84.375,80.25 l 9.375,6.25 -1.25,6.125 c -3.125,15.25 7.875,31.625 24.25,36.125 11.875,3.375 27.25,-0.25 35.5,-8.25 7.125,-7 10,-13.5 10,-23 0,-12.625 -6.375,-22.25 -19.25,-28.875 -8.375,-4.25 -21.875,-4.125 -31.375,0.25 l -7.125,3.375 -10.375,-8.875 c -89.25,-75.25 -150.625,-210.125 -136.75,-300.875 6.75,-44.875 31.375,-86.5 69.375,-117.5 6,-4.875 5.625,-4.25 -3.75,5.625 -20.875,21.875 -32.875,45.75 -40.125,79.25 -3.25,15.375 -4.625,53.25 -2.5,71 6.625,54.25 32.75,112.625 73.125,163.5 13.625,17.125 50.875,53.875 68.25,67.375 28.375,22 64.875,43.625 93.875,55.75 9.125,3.75 9.625,4.125 10.375,8.75 1.25,7.875 7.875,16.25 16.25,20.625 6.375,3.25 8.75,3.75 16.25,3.625 10,-0.125 16,-2.375 22.625,-8.25 7,-6 9.875,-12.75 9.875,-22.25 0,-9.125 -1.875,-13.625 -8.25,-20.125 -12.5,-12.375 -35.625,-12.5 -48,-0.25 l -3.75,3.875 -13.125,-7.75 c -94,-55.75 -156.5,-128.25 -184.875,-214.5 -10.375,-31.5 -15.5,-62.625 -15.5,-94.375 -0.125,-32.5 4.375,-52.125 17.75,-77.375 19.75,-37.375 49.5,-61.375 98.875,-79.375 31.875,-11.75 58.75,-16.875 88.5,-16.875 11.75,-0.125 21.375,-0.25 21.25,-0.375 -0.125,-0.125 -5.375,-1.125 -11.5,-2.25 -17.625,-3.375 -59.75,-3.75 -78.75,-0.75 z m 115.375,500.125 c 4.875,3 8.25,10 7.125,15.125 -0.5,1.875 -2.75,5.25 -5.125,7.375 -10.625,9.25 -28.5,1.125 -26.375,-12.125 1.75,-10.75 14.75,-16.25 24.375,-10.375 z m -130.25,9.25 c 3.5,3.5 4.25,5.125 4.25,9.75 0,8.875 -6.25,14.75 -15.625,14.75 -12,0 -19,-11 -13.75,-21.25 2.5,-4.875 7.5,-7.375 14.875,-7.5 5.25,0 6.5,0.5 10.25,4.25 z"
         inkscape:connector-curvature="0"
         style="fill:#178fd6;stroke:none" />
      <path
         id="path4152"
         d="m -1005.3136,335.85321 c -8,1.375 -14.875,6.625 -19.125,14.75 -3.25,6.125 -3.5,7.875 -3.125,15.625 0.625,9.75 2.75,14.625 9.375,22 4.875,5.375 11,9 17.625,10.5 l 4,0.875 0,21.375 c -0.125,101 -32.375,203.5 -86.375,273.75 -26,33.75 -60.75,61.375 -93.875,74.5 -18.125,7.125 -30.75,9.375 -53.5,9.375 -22.875,0.125 -31.25,-1.125 -50.75,-7.375 -14,-4.625 -26.25,-10.5 -39.125,-18.625 -9.625,-6.25 -29.875,-22.875 -33.875,-28 -1.5,-1.875 -2.25,-2.5 -1.75,-1.5 2.125,4.25 19.875,24.125 33.125,37 39.375,38.25 82.75,63.625 122.125,71.75 70.5,14.25 147.125,-13.25 206,-74 23,-23.875 38.5,-46.125 53.75,-77.875 10.5,-21.875 17.375,-41.125 22.75,-63.75 6.875,-28.625 8,-39.625 8.5,-76.25 l 0.375,-33.75 4.125,-1.25 c 2.25,-0.625 6.625,-3.75 9.875,-6.875 17.5,-16.875 9.5,-48.375 -14.625,-57.375 -15.75,-6 -30.75,-0.625 -38.625,13.75 -3.125,5.75 -3.625,8.125 -3.625,15.5 0.25,15.75 7.875,27 23.875,34.875 0.5,0.25 -5.875,26.125 -10.25,41.625 -44.25,157.125 -115.25,247.375 -208.75,264.875 -14.875,2.875 -47.625,3.25 -61.25,0.75 -12.25,-2.25 -35.875,-7.875 -35.25,-8.5 0.25,-0.25 4.75,0.375 10.125,1.375 12.625,2.5 36,2.375 50.875,-0.125 58.125,-9.75 117.875,-54 161.75,-119.875 29.75,-44.75 48.75,-93.5 57.75,-148.375 3,-18.5 3,-70.375 0,-87.875 -2.625,-14.875 -7.125,-33 -11.375,-45.25 l -3,-8.875 2.5,-2.375 c 12,-10.875 12.5,-31.375 1,-44.5 -9.125,-10.25 -19,-14 -31.25,-11.875 z m 15.125,15.375 c 10.375,5.5 11.625,21 2.125,26.875 -5.25,3.125 -9.25,3.125 -14.5,0 -6.25,-3.75 -9.25,-9.5 -8.625,-16.25 1.125,-10.375 11.375,-15.625 21,-10.625 z m 79.5,107.625 c 4.5,2.875 7.875,9.25 7.875,14.625 0,6.75 -6.5,13.375 -13,13.375 -12.75,0 -20.75,-12.75 -15,-23.875 3.5,-6.875 13,-8.875 20.125,-4.125 z"
         inkscape:connector-curvature="0"
         style="fill:#178fd6;stroke:none" />
    </g>
  </g>
</svg>
