<?xml version="1.0" standalone="no"?>
<!DOCTYPE svg PUBLIC "-//W3C//DTD SVG 20010904//EN"
 "http://www.w3.org/TR/2001/REC-SVG-20010904/DTD/svg10.dtd">
<svg version="1.0" xmlns="http://www.w3.org/2000/svg"
 width="2800.000000pt" height="609.000000pt" viewBox="0 0 2800.000000 609.000000"
 preserveAspectRatio="xMidYMid meet">
<metadata>
Created by potrace 1.13, written by Peter Selinger 2001-2015
</metadata>
<g transform="translate(0.000000,609.000000) scale(0.100000,-0.100000)"
fill="#000000" stroke="none">
<path d="M4497 6080 c-169 -20 -395 -89 -561 -172 -199 -100 -353 -213 -532
-392 -379 -380 -602 -846 -680 -1426 -27 -202 -22 -557 12 -746 5 -28 2 -32
-27 -44 -47 -20 -97 -66 -122 -114 -33 -62 -31 -174 5 -241 117 -223 418 -226
493 -6 44 130 -26 291 -152 350 l-50 23 28 161 c205 1188 648 1996 1264 2305
287 143 638 187 969 119 55 -12 49 -12 -100 -12 -171 0 -261 -14 -404 -61
-663 -221 -1268 -1011 -1443 -1884 -42 -207 -51 -305 -52 -530 0 -331 41 -557
152 -837 l44 -112 -26 -36 c-78 -102 -70 -232 20 -333 59 -65 116 -92 197 -92
141 1 228 90 228 232 -1 132 -89 241 -218 268 -51 11 -51 12 -59 58 -4 26 -8
193 -8 372 1 349 12 488 61 760 179 978 700 1736 1332 1934 187 59 438 72 621
32 226 -49 441 -156 627 -311 63 -53 60 -49 -36 50 -337 343 -771 601 -1130
670 -102 19 -345 27 -453 15z m-1590 -2964 c28 -31 33 -43 33 -87 0 -43 -5
-55 -29 -80 -28 -28 -47 -33 -101 -29 -100 7 -145 146 -70 213 29 26 38 29 83
24 42 -4 56 -10 84 -41z m640 -771 c12 -3 36 -22 52 -41 50 -56 39 -149 -20
-180 -63 -32 -142 -5 -172 59 -38 79 -10 144 73 170 15 5 27 4 67 -8z"
fill="rgb(255,255,255)"/>
<path d="M5245 5530 c-308 -49 -566 -189 -810 -441 -461 -476 -765 -1248 -765
-1942 0 -482 118 -849 394 -1222 6 -8 -2 -34 -22 -75 -18 -35 -32 -78 -32 -96
0 -32 -1 -33 -57 -41 -32 -4 -186 -8 -343 -8 -306 0 -409 10 -640 61 -879 195
-1587 828 -1736 1554 -26 128 -33 338 -13 446 38 211 135 399 283 549 183 186
398 296 651 335 82 13 396 17 437 5 17 -4 19 -3 8 3 -29 18 -197 36 -335 35
-231 0 -436 -48 -636 -148 -553 -277 -834 -749 -768 -1290 44 -361 226 -692
574 -1041 82 -83 197 -189 255 -234 434 -344 940 -565 1395 -611 61 -6 119
-13 131 -15 13 -2 43 -38 82 -96 160 -243 411 -461 648 -563 173 -74 376 -106
555 -86 389 42 723 235 1021 591 369 439 609 983 683 1543 19 152 20 457 0
596 -38 264 -129 520 -259 721 l-42 65 29 40 c16 22 38 60 49 84 l20 44 137
-7 c552 -26 1050 -181 1462 -454 362 -242 627 -538 799 -893 348 -723 142
-1424 -498 -1699 -215 -92 -455 -112 -747 -61 -60 11 -111 18 -112 17 -5 -5
135 -43 227 -63 121 -25 430 -26 550 0 259 55 534 190 722 354 259 225 398
537 398 892 0 387 -161 769 -499 1181 -432 527 -1086 925 -1645 1000 -127 17
-120 14 -145 77 -72 179 -207 371 -359 513 -213 199 -422 315 -655 366 -87 19
-309 27 -392 14z m500 -300 c50 -6 124 -20 165 -31 276 -77 557 -305 684 -556
14 -29 26 -54 26 -56 0 -2 -64 -4 -142 -5 -148 -1 -309 -23 -442 -61 l-69 -19
-51 52 c-147 151 -389 119 -491 -65 -27 -48 -30 -63 -30 -139 0 -69 5 -93 23
-128 53 -99 142 -164 244 -178 l46 -6 22 -80 c199 -739 149 -1413 -151 -2010
-369 -735 -1071 -1153 -1664 -991 -175 48 -337 144 -488 292 l-100 98 137 11
c204 17 451 78 579 144 l38 19 41 -36 c109 -93 295 -84 400 18 95 92 120 226
65 339 -50 103 -141 164 -261 175 l-65 6 -31 86 c-80 218 -139 470 -166 707
-20 173 -14 555 10 709 82 503 286 931 600 1253 207 213 420 345 672 417 142
40 259 51 399 35z m16 -763 c65 -44 75 -137 21 -198 -22 -24 -39 -32 -76 -36
-89 -10 -146 42 -146 132 0 42 5 52 39 86 33 34 45 39 83 39 30 0 56 -8 79
-23z m-1394 -2627 c45 -27 66 -64 66 -116 0 -54 -24 -91 -77 -118 -104 -51
-221 67 -169 172 36 74 116 101 180 62z" fill="rgb(255,255,255)"/>
<path d="M7718 5467 c-161 -46 -251 -223 -182 -360 44 -88 124 -138 230 -145
81 -5 128 7 192 49 l43 29 93 -58 c393 -247 781 -650 1040 -1081 82 -135 203
-384 251 -515 76 -205 125 -450 125 -619 0 -331 -121 -656 -351 -942 -76 -94
-114 -127 -53 -45 106 141 188 343 219 545 24 149 17 422 -15 580 -66 337
-249 713 -498 1025 -93 117 -358 382 -472 473 -370 295 -788 513 -1202 628
-77 21 -118 37 -118 46 0 28 -40 92 -77 122 -111 92 -280 78 -377 -30 -111
-124 -80 -290 68 -366 117 -61 273 -22 349 87 15 21 15 21 107 -16 129 -52
425 -199 550 -274 673 -403 1135 -974 1329 -1643 117 -400 116 -698 -2 -991
-127 -318 -341 -527 -738 -725 -259 -129 -511 -206 -719 -220 l-105 -7 105 -7
c205 -15 487 25 723 104 161 53 433 187 582 287 410 275 728 660 849 1028 79
242 98 590 46 838 -96 455 -427 982 -868 1382 -218 197 -476 378 -684 477
l-87 42 6 36 c7 50 -20 136 -57 181 -63 76 -198 114 -302 85z m125 -131 c45
-19 68 -48 73 -93 12 -97 -106 -166 -193 -113 -68 41 -79 121 -25 173 48 46
92 56 145 33z m-1044 -202 c48 -19 71 -51 71 -99 0 -72 -54 -125 -130 -125
-129 0 -165 167 -47 221 51 23 57 23 106 3z" fill="rgb(255,255,255)"/>
<path d="M1845 4831 c-249 -39 -475 -112 -710 -226 -373 -183 -677 -437 -876
-732 -213 -315 -303 -766 -234 -1169 65 -381 285 -841 591 -1234 176 -227 468
-505 675 -642 l75 -50 -10 -49 c-25 -122 63 -253 194 -289 95 -27 218 2 284
66 57 56 80 108 80 184 0 101 -51 178 -154 231 -67 34 -175 33 -251 -2 l-57
-27 -83 71 c-714 602 -1205 1681 -1094 2407 54 359 251 692 555 940 48 39 45
34 -30 -45 -167 -175 -263 -366 -321 -634 -26 -123 -37 -426 -20 -568 53 -434
262 -901 585 -1308 109 -137 407 -431 546 -539 227 -176 519 -349 751 -446 73
-30 77 -33 83 -70 10 -63 63 -130 130 -165 51 -26 70 -30 130 -29 80 1 128 19
181 66 56 48 79 102 79 178 0 73 -15 109 -66 161 -100 99 -285 100 -384 2
l-30 -31 -105 62 c-752 446 -1252 1026 -1479 1716 -83 252 -124 501 -124 755
-1 260 35 417 142 619 158 299 396 491 791 635 255 94 470 135 708 135 94 1
171 2 170 3 -1 1 -43 9 -92 18 -141 27 -478 30 -630 6z m923 -4001 c39 -24 66
-80 57 -121 -4 -15 -22 -42 -41 -59 -85 -74 -228 -9 -211 97 14 86 118 130
195 83z m-1042 -74 c28 -28 34 -41 34 -78 0 -71 -50 -118 -125 -118 -96 0
-152 88 -110 170 20 39 60 59 119 60 42 0 52 -4 82 -34z" 
fill="rgb(255,255,255)"/>
<path d="M12891 4125 l-605 -565 -258 0 -258 0 0 555 0 555 -470 2 -470 3 0
-1542 0 -1543 470 0 470 0 0 590 0 590 258 0 257 0 689 -590 689 -590 711 0
711 1 -32 27 c-17 15 -450 367 -962 782 -511 415 -929 758 -928 762 1 4 399
350 885 768 l883 760 -718 0 -718 -1 -604 -564z" fill="rgb(255,255,255)"/>
<path d="M6370 3998 c-64 -11 -119 -53 -153 -118 -26 -49 -28 -63 -25 -125 5
-78 22 -117 75 -176 39 -43 88 -72 141 -84 l32 -7 0 -171 c-1 -808 -259 -1628
-691 -2190 -208 -270 -486 -491 -751 -596 -145 -57 -246 -75 -428 -75 -183 -1
-250 9 -406 59 -112 37 -210 84 -313 149 -77 50 -239 183 -271 224 -12 15 -18
20 -14 12 17 -34 159 -193 265 -296 315 -306 662 -509 977 -574 564 -114 1177
106 1648 592 184 191 308 369 430 623 84 175 139 329 182 510 55 229 64 317
68 610 l3 270 33 10 c18 5 53 30 79 55 140 135 76 387 -117 459 -126 48 -246
5 -309 -110 -25 -46 -29 -65 -29 -124 2 -126 63 -216 191 -279 4 -2 -47 -209
-82 -333 -354 -1257 -922 -1979 -1670 -2119 -119 -23 -381 -26 -490 -6 -98 18
-287 63 -282 68 2 2 38 -3 81 -11 101 -20 288 -19 407 1 465 78 943 432 1294
959 238 358 390 748 462 1187 24 148 24 563 0 703 -21 119 -57 264 -91 362
l-24 71 20 19 c96 87 100 251 8 356 -73 82 -152 112 -250 95z m121 -123 c83
-44 93 -168 17 -215 -42 -25 -74 -25 -116 0 -50 30 -74 76 -69 130 9 83 91
125 168 85z m636 -861 c36 -23 63 -74 63 -117 0 -54 -52 -107 -104 -107 -102
0 -166 102 -120 191 28 55 104 71 161 33z" fill="rgb(255,255,255)"/>
<path d="M16445 3834 c-633 -28 -868 -88 -1052 -269 -114 -112 -164 -225 -180
-402 l-6 -73 405 0 406 0 12 48 c15 62 53 110 104 133 56 24 245 39 510 39
226 0 358 -11 446 -36 110 -32 149 -115 158 -336 6 -152 4 -154 -90 -78 -68
55 -134 84 -230 100 -169 29 -907 20 -1173 -15 -346 -46 -538 -194 -607 -471
-30 -120 -32 -391 -4 -499 62 -240 203 -357 497 -412 81 -16 154 -18 539 -18
451 0 545 6 685 41 141 36 279 135 348 250 19 33 39 54 49 54 16 0 18 -13 18
-150 l0 -150 395 0 395 0 0 683 c0 907 -10 1036 -85 1196 -50 106 -160 213
-275 270 -152 74 -284 90 -810 95 -206 2 -411 2 -455 0z m631 -1343 c56 -13
116 -57 140 -103 22 -42 20 -131 -4 -176 -43 -84 -153 -123 -399 -143 -188
-15 -580 -6 -676 15 -137 31 -197 89 -197 194 0 134 83 199 286 222 111 12
786 5 850 -9z" fill="rgb(255,255,255)"/>
<path d="M26380 3833 c-155 -5 -403 -24 -510 -39 -160 -23 -255 -50 -369 -105
-87 -43 -116 -63 -180 -127 -107 -108 -157 -222 -176 -405 l-7 -67 407 2 408
3 12 48 c23 91 68 128 175 147 100 18 606 25 728 11 258 -30 301 -78 310 -348
5 -167 2 -171 -76 -102 -63 55 -129 87 -220 107 -65 14 -142 16 -482 16 -682
-1 -897 -32 -1087 -156 -85 -55 -138 -116 -184 -213 -53 -111 -71 -209 -72
-385 -2 -360 112 -542 393 -628 135 -41 223 -47 675 -47 538 1 642 12 804 91
85 42 182 132 221 207 18 34 30 47 43 45 17 -3 19 -16 20 -148 l2 -145 393 -3
392 -2 0 718 c0 400 -5 775 -10 845 -19 227 -65 350 -175 461 -106 108 -242
173 -410 195 -181 25 -655 36 -1025 24z m524 -1333 c115 -8 135 -13 175 -37
82 -50 112 -151 72 -238 -54 -118 -180 -152 -596 -162 -263 -6 -441 5 -538 34
-175 52 -200 269 -42 355 83 45 178 55 530 56 149 1 328 -3 399 -8z"
fill="rgb(255,255,255)"/>
<path d="M19860 3819 c-197 -20 -337 -59 -431 -120 -57 -36 -138 -120 -170
-177 -17 -30 -31 -42 -46 -42 -23 0 -23 1 -23 150 l0 150 -385 0 -385 0 0
-1550 0 -1550 410 0 410 0 0 595 c0 583 0 595 20 595 11 0 31 -17 49 -43 44
-65 145 -154 214 -188 154 -78 371 -104 801 -96 312 5 470 21 635 63 309 78
464 268 522 639 6 39 13 188 16 331 9 414 -18 680 -84 824 -118 257 -351 378
-803 419 -135 13 -627 12 -750 0z m455 -619 c224 -33 318 -102 351 -261 24
-115 15 -459 -15 -552 -59 -183 -202 -231 -686 -231 -616 0 -725 76 -725 504
1 324 61 459 230 508 70 20 176 36 295 46 87 7 477 -3 550 -14z"
fill="rgb(255,255,255)"/>
<path d="M21800 3133 c0 -645 6 -803 36 -953 43 -211 206 -417 409 -518 190
-93 431 -128 832 -119 318 7 474 35 618 110 75 40 172 135 215 210 25 45 37
57 56 57 l25 0 -2 -162 -1 -163 381 -3 381 -2 0 1095 0 1095 -409 0 -410 0 -4
-622 c-4 -653 -4 -664 -50 -770 -39 -91 -146 -169 -277 -202 -196 -48 -571
-46 -732 4 -125 39 -213 140 -238 275 -8 39 -14 280 -17 688 l-5 627 -404 0
-404 0 0 -647z" fill="rgb(255,255,255)"/>
</g>
</svg>
